<svg width="145" height="145" viewBox="0 0 145 145" fill="none" xmlns="http://www.w3.org/2000/svg">
<path d="M72.5 0C32.4593 0 0 32.4593 0 72.5C0 112.541 32.4593 145 72.5 145C99.3747 145 122.814 130.367 135.336 108.644L109.812 93.9614C102.372 106.866 88.4653 115.573 72.5 115.573C48.7112 115.573 29.4265 96.2888 29.4265 72.5C29.4265 48.7112 48.7112 29.4265 72.5 29.4265C82.6968 29.4265 92.0426 32.9937 99.4131 38.9227L80.3766 52.4634L145 74.0133V6.47824L123.954 21.4526C110.819 8.21087 92.6252 0 72.5 0Z" fill="#011936"/>
</svg>
