<svg width="245" height="46" viewBox="0 0 245 46" fill="none" xmlns="http://www.w3.org/2000/svg">
<path d="M42 40.0625H0L3.74062 9.875H38.2594L42 40.0625Z" fill="#89664C"/>
<path d="M17.1938 7.51251C13.3876 7.51251 6.30005 8.75939 4.00317 8.03751C4.00317 8.03751 4.5938 20.9656 1.37817 39.1438C5.9063 38.8156 11.9438 36.2563 16.4063 36.2563C20.9344 36.2563 20.9344 39.1438 20.9344 39.1438V10.7281C21.0657 10.7281 21.0001 7.51251 17.1938 7.51251Z" fill="#B0BDC6"/>
<path d="M17.2595 7.05312C13.4533 7.05312 7.61265 8.23437 5.84077 5.9375C5.84077 5.9375 6.4314 20.5719 2.4939 36.9125C3.93765 38.9469 11.6814 36.1906 16.2095 36.1906C20.7376 36.1906 21.0002 39.1437 21.0002 39.1437V10.2687C21.0658 10.2687 21.0658 7.05312 17.2595 7.05312Z" fill="#E1EBEF"/>
<path d="M16.472 36.2562C11.9438 36.2562 4.00322 39.1437 1.44385 39.1437H21.0657C21.0657 39.1437 21.0001 36.2562 16.472 36.2562Z" fill="#94989B"/>
<path d="M7.74365 11.3187L7.80928 10.7937C8.3999 10.7937 9.51553 10.5969 10.7624 10.3344C12.4687 10.0062 14.4374 9.61249 16.0124 9.61249C18.1124 9.61249 18.7686 10.0719 18.8999 10.1375L18.703 10.3344L18.5062 10.5312C18.5062 10.5312 17.8499 10.1375 16.0124 10.1375C14.503 10.1375 12.5999 10.5312 10.8937 10.8594C9.58115 11.1219 8.46553 11.3187 7.74365 11.3187Z" fill="#7D8B91"/>
<path d="M7.48145 14.1406L7.54707 13.55C8.20332 13.55 9.31895 13.3531 10.5658 13.0906C12.3377 12.7625 14.3064 12.3687 15.8814 12.3687C17.9814 12.3687 18.7033 12.8281 18.7689 12.8937L18.6377 13.1562L18.4408 13.4187C18.4408 13.4187 17.7846 12.9593 15.8814 12.9593C14.3064 12.9593 12.4033 13.3531 10.6314 13.6812C9.31895 13.9437 8.20332 14.1406 7.48145 14.1406Z" fill="#7D8B91"/>
<path d="M7.21875 17.0937L7.28438 16.5031C7.94063 16.5031 9.05625 16.2406 10.3688 15.9781C12.1406 15.5844 14.175 15.1906 15.8156 15.1906C17.9813 15.1906 18.7031 15.7156 18.7688 15.7812L18.5719 16.0437L18.375 16.3062C18.375 16.3062 17.7188 15.8469 15.75 15.8469C14.175 15.8469 12.2063 16.2406 10.4344 16.6344C9.12188 16.8969 7.94063 17.0937 7.21875 17.0937Z" fill="#7D8B91"/>
<path d="M6.9563 20.1781L7.02192 19.5219C7.67817 19.5219 8.85942 19.2593 10.1719 18.9968C12.0094 18.6031 14.0438 18.2094 15.75 18.2094C17.9813 18.2094 18.7032 18.7344 18.7688 18.8L18.5063 19.0625L18.375 19.325C18.375 19.325 17.7188 18.8656 15.6844 18.8656C14.0438 18.8656 12.0094 19.2593 10.2375 19.6531C8.85942 19.9156 7.67817 20.1781 6.9563 20.1781Z" fill="#7D8B91"/>
<path d="M6.62817 23.3937L6.6938 22.7375C7.35005 22.7375 8.5313 22.475 9.90942 22.2125C11.7469 21.8187 13.8469 21.3594 15.5532 21.3594C17.7844 21.3594 18.5719 21.8844 18.6375 21.95L18.4407 22.2125L18.2438 22.475C18.2438 22.475 17.5875 22.0156 15.4875 22.0156C13.8469 22.0156 11.7469 22.475 9.90942 22.8687C8.59692 23.1312 7.35005 23.3937 6.62817 23.3937Z" fill="#7D8B91"/>
<path d="M6.30005 26.7406L6.36567 26.0844C7.02192 26.0844 8.2688 25.8219 9.64692 25.4937C11.55 25.1 13.7157 24.6406 15.4219 24.6406C17.7188 24.6406 18.5063 25.2312 18.5719 25.2969L18.375 25.5594L18.1782 25.8219C18.1782 25.8219 17.4563 25.2969 15.3563 25.2969C13.65 25.2969 11.55 25.7562 9.64692 26.15C8.33442 26.4781 7.08755 26.7406 6.30005 26.7406Z" fill="#7D8B91"/>
<path d="M5.97192 30.2187L6.03755 29.4969C6.75942 29.4969 7.94067 29.2344 9.38442 28.9062C11.3532 28.4469 13.5188 27.9875 15.2907 27.9875C17.6532 27.9875 18.4407 28.5781 18.5063 28.6437L18.375 28.9719L18.1782 29.2344C18.1782 29.2344 17.4563 28.7094 15.2907 28.7094C13.5844 28.7094 11.4188 29.1687 9.45005 29.6281C8.07192 29.9562 6.75942 30.2187 5.97192 30.2187Z" fill="#7D8B91"/>
<path d="M5.6438 33.8937L5.70942 33.1719C6.4313 33.1719 7.67817 32.9094 9.12192 32.5812C11.0907 32.1219 13.3875 31.5969 15.1594 31.5969C17.5876 31.5969 18.375 32.2531 18.4407 32.3187L18.2438 32.5812L18.1125 32.8437C18.1125 32.8437 17.3907 32.2531 15.1594 32.2531C13.3875 32.2531 11.1563 32.7781 9.18755 33.2375C7.7438 33.5656 6.4313 33.8937 5.6438 33.8937Z" fill="#7D8B91"/>
<path d="M24.8062 7.51251C28.6125 7.51251 35.7 8.75939 37.9969 8.03751C37.9969 8.03751 37.4062 20.9656 40.6219 39.1438C36.0937 38.8156 30.0562 36.2563 25.5937 36.2563C21.0656 36.2563 21.0656 39.1438 21.0656 39.1438V10.7281C21 10.7281 21 7.51251 24.8062 7.51251Z" fill="#B0BDC6"/>
<path d="M24.7406 7.05312C28.5469 7.05312 34.3875 8.23437 36.1594 5.9375C36.1594 5.9375 35.5688 20.5719 39.5063 36.9125C38.0625 38.9469 30.3188 36.1906 25.7906 36.1906C21.2625 36.1906 21 39.1437 21 39.1437V10.2687C21 10.2687 21 7.05312 24.7406 7.05312Z" fill="#D9E3E8"/>
<path d="M25.5281 36.2562C30.0562 36.2562 37.9969 39.1437 40.5562 39.1437H21C21 39.1437 21 36.2562 25.5281 36.2562Z" fill="#94989B"/>
<path d="M34.2563 11.3187L34.1907 10.7937C33.6001 10.7937 32.4845 10.5969 31.2376 10.3344C29.5313 10.0062 27.5626 9.61249 25.9876 9.61249C23.8876 9.61249 23.2313 10.0719 23.1001 10.1375L23.297 10.3344L23.4938 10.5312C23.4938 10.5312 24.1501 10.1375 25.9876 10.1375C27.497 10.1375 29.4001 10.5312 31.1063 10.8594C32.4845 11.1219 33.6001 11.3187 34.2563 11.3187Z" fill="#7D8B91"/>
<path d="M34.519 14.1406L34.4533 13.55C33.7971 13.55 32.6815 13.3531 31.4346 13.0906C29.6627 12.7625 27.6939 12.3687 26.1189 12.3687C24.0189 12.3687 23.2971 12.8281 23.2314 12.8937L23.4283 13.0906L23.6252 13.3531C23.6252 13.3531 24.2814 12.8937 26.1846 12.8937C27.7596 12.8937 29.6627 13.2875 31.4346 13.6156C32.6815 13.9437 33.7971 14.1406 34.519 14.1406Z" fill="#7D8B91"/>
<path d="M34.7814 17.0937L34.7158 16.5031C34.0596 16.5031 32.9439 16.2406 31.6314 15.9781C29.8596 15.5844 27.8252 15.1906 26.1846 15.1906C24.0189 15.1906 23.2971 15.7156 23.2314 15.7812L23.4283 16.0437L23.6252 16.3062C23.6252 16.3062 24.2814 15.8469 26.2502 15.8469C27.8252 15.8469 29.7939 16.2406 31.5658 16.6344C32.9439 16.8969 34.0596 17.0937 34.7814 17.0937Z" fill="#7D8B91"/>
<path d="M35.1094 20.1781L35.0438 19.5219C34.3875 19.5219 33.2062 19.2593 31.8937 18.9968C30.0562 18.6031 28.0219 18.2094 26.3156 18.2094C24.0844 18.2094 23.3625 18.7344 23.2969 18.8L23.4937 19.0625L23.6906 19.325C23.6906 19.325 24.3469 18.8656 26.3813 18.8656C28.0219 18.8656 30.0563 19.2593 31.8281 19.6531C33.1406 19.9156 34.3875 20.1781 35.1094 20.1781Z" fill="#7D8B91"/>
<path d="M35.3719 23.3937L35.3063 22.7375C34.65 22.7375 33.4688 22.475 32.0907 22.2125C30.2532 21.8187 28.1532 21.3594 26.4469 21.3594C24.2157 21.3594 23.4282 21.8844 23.3625 21.95L23.5594 22.2125L23.7563 22.475C23.7563 22.475 24.4126 22.0156 26.5126 22.0156C28.1532 22.0156 30.2532 22.475 32.0907 22.8687C33.4032 23.1312 34.6501 23.3937 35.3719 23.3937Z" fill="#7D8B91"/>
<path d="M35.7001 26.7406L35.6345 26.0844C34.9782 26.0844 33.7313 25.8219 32.3532 25.4937C30.4501 25.1 28.2845 24.6406 26.5782 24.6406C24.2813 24.6406 23.4938 25.2312 23.4282 25.2969L23.6251 25.5594L23.822 25.8219C23.822 25.8219 24.5438 25.2969 26.6438 25.2969C28.3501 25.2969 30.4501 25.7562 32.3532 26.15C33.6657 26.4781 34.9126 26.7406 35.7001 26.7406Z" fill="#7D8B91"/>
<path d="M36.0283 30.2187L35.9626 29.4969C35.2408 29.4969 34.0595 29.2344 32.6158 28.9062C30.647 28.4469 28.4814 27.9875 26.7095 27.9875C24.347 27.9875 23.5595 28.5781 23.4939 28.6437L23.6908 28.9062L23.8876 29.1687C23.8876 29.1687 24.6095 28.6437 26.7751 28.6437C28.4814 28.6437 30.647 29.1031 32.6158 29.5625C33.9939 29.9562 35.2408 30.2187 36.0283 30.2187Z" fill="#7D8B91"/>
<path d="M36.3565 33.8937L36.2908 33.1719C35.569 33.1719 34.3221 32.9094 32.8783 32.5812C30.9096 32.1219 28.6127 31.5969 26.8408 31.5969C24.4127 31.5969 23.6252 32.2531 23.5596 32.3187L23.7564 32.5812L23.9533 32.9094C23.9533 32.9094 24.6752 32.3187 26.9064 32.3187C28.6783 32.3187 30.9096 32.8437 32.8783 33.3031C34.2564 33.5656 35.569 33.8937 36.3565 33.8937Z" fill="#7D8B91"/>
<path d="M245 2H164V46H245V2Z" fill="#ED254E"/>
<path d="M83.076 9.8L74.832 35H68.568L63.024 17.936L57.3 35H51.072L42.792 9.8H48.84L54.528 27.512L60.468 9.8H65.868L71.628 27.656L77.496 9.8H83.076ZM93.7103 35.288C91.6703 35.288 89.8343 34.868 88.2023 34.028C86.5943 33.164 85.3343 31.976 84.4223 30.464C83.5103 28.952 83.0543 27.236 83.0543 25.316C83.0543 23.396 83.5103 21.68 84.4223 20.168C85.3343 18.656 86.5943 17.48 88.2023 16.64C89.8343 15.776 91.6703 15.344 93.7103 15.344C95.7503 15.344 97.5743 15.776 99.1823 16.64C100.79 17.48 102.05 18.656 102.962 20.168C103.874 21.68 104.33 23.396 104.33 25.316C104.33 27.236 103.874 28.952 102.962 30.464C102.05 31.976 100.79 33.164 99.1823 34.028C97.5743 34.868 95.7503 35.288 93.7103 35.288ZM93.7103 30.68C95.1503 30.68 96.3263 30.2 97.2383 29.24C98.1743 28.256 98.6423 26.948 98.6423 25.316C98.6423 23.684 98.1743 22.388 97.2383 21.428C96.3263 20.444 95.1503 19.952 93.7103 19.952C92.2703 19.952 91.0823 20.444 90.1463 21.428C89.2103 22.388 88.7423 23.684 88.7423 25.316C88.7423 26.948 89.2103 28.256 90.1463 29.24C91.0823 30.2 92.2703 30.68 93.7103 30.68ZM113.448 18.188C114.12 17.252 115.02 16.544 116.148 16.064C117.3 15.584 118.62 15.344 120.108 15.344V20.528C119.484 20.48 119.064 20.456 118.848 20.456C117.24 20.456 115.98 20.912 115.068 21.824C114.156 22.712 113.7 24.056 113.7 25.856V35H108.084V15.632H113.448V18.188ZM143 8.288V35H137.636V32.768C136.244 34.448 134.228 35.288 131.588 35.288C129.764 35.288 128.108 34.88 126.62 34.064C125.156 33.248 124.004 32.084 123.164 30.572C122.324 29.06 121.904 27.308 121.904 25.316C121.904 23.324 122.324 21.572 123.164 20.06C124.004 18.548 125.156 17.384 126.62 16.568C128.108 15.752 129.764 15.344 131.588 15.344C134.06 15.344 135.992 16.124 137.384 17.684V8.288H143ZM132.56 30.68C133.976 30.68 135.152 30.2 136.088 29.24C137.024 28.256 137.492 26.948 137.492 25.316C137.492 23.684 137.024 22.388 136.088 21.428C135.152 20.444 133.976 19.952 132.56 19.952C131.12 19.952 129.932 20.444 128.996 21.428C128.06 22.388 127.592 23.684 127.592 25.316C127.592 26.948 128.06 28.256 128.996 29.24C129.932 30.2 131.12 30.68 132.56 30.68ZM154.713 35.288C153.105 35.288 151.533 35.096 149.997 34.712C148.461 34.304 147.237 33.8 146.325 33.2L148.197 29.168C149.061 29.72 150.105 30.176 151.329 30.536C152.553 30.872 153.753 31.04 154.929 31.04C157.305 31.04 158.493 30.452 158.493 29.276C158.493 28.724 158.169 28.328 157.521 28.088C156.873 27.848 155.877 27.644 154.533 27.476C152.949 27.236 151.641 26.96 150.609 26.648C149.577 26.336 148.677 25.784 147.909 24.992C147.165 24.2 146.793 23.072 146.793 21.608C146.793 20.384 147.141 19.304 147.837 18.368C148.557 17.408 149.589 16.664 150.933 16.136C152.301 15.608 153.909 15.344 155.757 15.344C157.125 15.344 158.481 15.5 159.825 15.812C161.193 16.1 162.321 16.508 163.209 17.036L161.337 21.032C159.633 20.072 157.773 19.592 155.757 19.592C154.557 19.592 153.657 19.76 153.057 20.096C152.457 20.432 152.157 20.864 152.157 21.392C152.157 21.992 152.481 22.412 153.129 22.652C153.777 22.892 154.809 23.12 156.225 23.336C157.809 23.6 159.105 23.888 160.113 24.2C161.121 24.488 161.997 25.028 162.741 25.82C163.485 26.612 163.857 27.716 163.857 29.132C163.857 30.332 163.497 31.4 162.777 32.336C162.057 33.272 161.001 34.004 159.609 34.532C158.241 35.036 156.609 35.288 154.713 35.288Z" fill="black"/>
<path d="M184.314 29.6H172.614L170.382 35H164.406L175.638 9.8H181.398L192.666 35H186.546L184.314 29.6ZM182.478 25.172L178.482 15.524L174.486 25.172H182.478ZM206.189 9.8C208.421 9.8 210.353 10.172 211.985 10.916C213.641 11.66 214.913 12.716 215.801 14.084C216.689 15.452 217.133 17.072 217.133 18.944C217.133 20.792 216.689 22.412 215.801 23.804C214.913 25.172 213.641 26.228 211.985 26.972C210.353 27.692 208.421 28.052 206.189 28.052H201.113V35H195.281V9.8H206.189ZM205.865 23.3C207.617 23.3 208.949 22.928 209.861 22.184C210.773 21.416 211.229 20.336 211.229 18.944C211.229 17.528 210.773 16.448 209.861 15.704C208.949 14.936 207.617 14.552 205.865 14.552H201.113V23.3H205.865ZM232.205 9.8C234.437 9.8 236.369 10.172 238.001 10.916C239.657 11.66 240.929 12.716 241.817 14.084C242.705 15.452 243.149 17.072 243.149 18.944C243.149 20.792 242.705 22.412 241.817 23.804C240.929 25.172 239.657 26.228 238.001 26.972C236.369 27.692 234.437 28.052 232.205 28.052H227.129V35H221.297V9.8H232.205ZM231.881 23.3C233.633 23.3 234.965 22.928 235.877 22.184C236.789 21.416 237.245 20.336 237.245 18.944C237.245 17.528 236.789 16.448 235.877 15.704C234.965 14.936 233.633 14.552 231.881 14.552H227.129V23.3H231.881Z" fill="white"/>
</svg>
