<svg width="568" height="322" viewBox="0 0 568 322" fill="none" xmlns="http://www.w3.org/2000/svg">
<path d="M83 75.2188H0L7.39219 15.5625H75.6078L83 75.2188Z" fill="#89664C"/>
<path d="M33.9781 10.8937C26.4562 10.8937 12.45 13.3578 7.91089 11.9312C7.91089 11.9312 9.07808 37.4797 2.72339 73.4031C11.6718 72.7547 23.6031 67.6969 32.4218 67.6969C41.3703 67.6969 41.3703 73.4031 41.3703 73.4031V17.2484C41.6296 17.2484 41.5 10.8937 33.9781 10.8937Z" fill="#B0BDC6"/>
<path d="M34.1079 9.98594C26.586 9.98594 15.0438 12.3203 11.5423 7.78125C11.5423 7.78125 12.7095 36.7016 4.92822 68.9937C7.78135 73.0141 23.0845 67.5672 32.0329 67.5672C40.9814 67.5672 41.5001 73.4031 41.5001 73.4031V16.3406C41.6298 16.3406 41.6298 9.98594 34.1079 9.98594Z" fill="#E1EBEF"/>
<path d="M32.5515 67.6969C23.603 67.6969 7.91084 73.4031 2.85303 73.4031H41.6296C41.6296 73.4031 41.4999 67.6969 32.5515 67.6969Z" fill="#94989B"/>
<path d="M15.303 18.4156L15.4327 17.3781C16.5999 17.3781 18.8045 16.9891 21.2686 16.4703C24.6405 15.8219 28.5311 15.0438 31.6436 15.0438C35.7936 15.0438 37.0905 15.9516 37.3498 16.0813L36.9608 16.4703L36.5717 16.8594C36.5717 16.8594 35.2748 16.0813 31.6436 16.0813C28.6608 16.0813 24.8999 16.8594 21.528 17.5078C18.9342 18.0266 16.7295 18.4156 15.303 18.4156Z" fill="#7D8B91"/>
<path d="M14.7844 23.9922L14.9141 22.825C16.211 22.825 18.4157 22.436 20.8797 21.9172C24.3813 21.2688 28.2719 20.4907 31.3844 20.4907C35.5344 20.4907 36.961 21.3985 37.0907 21.5282L36.8313 22.0469L36.4422 22.5657C36.4422 22.5657 35.1454 21.6579 31.3844 21.6579C28.2719 21.6579 24.511 22.436 21.0094 23.0844C18.4157 23.6032 16.211 23.9922 14.7844 23.9922Z" fill="#7D8B91"/>
<path d="M14.2656 29.8281L14.3953 28.661C15.6922 28.661 17.8969 28.1422 20.4906 27.6234C23.9922 26.8453 28.0125 26.0672 31.2547 26.0672C35.5344 26.0672 36.9609 27.1047 37.0906 27.2344L36.7016 27.7531L36.3125 28.2719C36.3125 28.2719 35.0156 27.3641 31.125 27.3641C28.0125 27.3641 24.1219 28.1422 20.6203 28.9203C18.0266 29.4391 15.6922 29.8281 14.2656 29.8281Z" fill="#7D8B91"/>
<path d="M13.7468 35.9235L13.8765 34.6266C15.1734 34.6266 17.5078 34.1078 20.1015 33.5891C23.7328 32.811 27.7531 32.0328 31.125 32.0328C35.5343 32.0328 36.9609 33.0703 37.0906 33.2L36.5718 33.7188L36.3125 34.2375C36.3125 34.2375 35.0156 33.3297 30.9953 33.3297C27.7531 33.3297 23.7328 34.1078 20.2312 34.886C17.5078 35.4047 15.1734 35.9235 13.7468 35.9235Z" fill="#7D8B91"/>
<path d="M13.0984 42.2781L13.2281 40.9812C14.525 40.9812 16.8593 40.4625 19.5828 39.9437C23.214 39.1656 27.364 38.2578 30.7359 38.2578C35.1453 38.2578 36.7015 39.2953 36.8312 39.425L36.4421 39.9437L36.0531 40.4625C36.0531 40.4625 34.7562 39.5547 30.6062 39.5547C27.364 39.5547 23.214 40.4625 19.5828 41.2406C16.989 41.7594 14.525 42.2781 13.0984 42.2781Z" fill="#7D8B91"/>
<path d="M12.45 48.8922L12.5796 47.5953C13.8765 47.5953 16.3406 47.0766 19.064 46.4281C22.825 45.65 27.1046 44.7422 30.4765 44.7422C35.0156 44.7422 36.5718 45.9094 36.7015 46.0391L36.3125 46.5578L35.9234 47.0766C35.9234 47.0766 34.4968 46.0391 30.3468 46.0391C26.9749 46.0391 22.825 46.9469 19.064 47.725C16.4703 48.3734 14.0062 48.8922 12.45 48.8922Z" fill="#7D8B91"/>
<path d="M11.8015 55.7656L11.9312 54.3391C13.3578 54.3391 15.6921 53.8203 18.5453 53.1719C22.4359 52.2641 26.7156 51.3563 30.2171 51.3563C34.8859 51.3563 36.4421 52.5235 36.5718 52.6531L36.3124 53.3016L35.9234 53.8203C35.9234 53.8203 34.4968 52.7828 30.2171 52.7828C26.8453 52.7828 22.5656 53.6906 18.6749 54.5985C15.9515 55.2469 13.3578 55.7656 11.8015 55.7656Z" fill="#7D8B91"/>
<path d="M11.1531 63.0281L11.2828 61.6016C12.7093 61.6016 15.1734 61.0828 18.0265 60.4344C21.9171 59.5266 26.4562 58.4891 29.9578 58.4891C34.7562 58.4891 36.3125 59.786 36.4421 59.9156L36.0531 60.4344L35.7937 60.9531C35.7937 60.9531 34.3671 59.7859 29.9578 59.7859C26.4562 59.7859 22.0468 60.8234 18.1562 61.7313C15.3031 62.3797 12.7093 63.0281 11.1531 63.0281Z" fill="#7D8B91"/>
<path d="M49.0219 10.8937C56.5437 10.8937 70.55 13.3578 75.0891 11.9312C75.0891 11.9312 73.9219 37.4797 80.2766 73.4031C71.3281 72.7547 59.3969 67.6969 50.5781 67.6969C41.6297 67.6969 41.6297 73.4031 41.6297 73.4031V17.2484C41.5 17.2484 41.5 10.8937 49.0219 10.8937Z" fill="#B0BDC6"/>
<path d="M48.8922 9.98594C56.4141 9.98594 67.9563 12.3203 71.4578 7.78125C71.4578 7.78125 70.2906 36.7016 78.0719 68.9937C75.2188 73.0141 59.9156 67.5672 50.9672 67.5672C42.0187 67.5672 41.5 73.4031 41.5 73.4031V16.3406C41.5 16.3406 41.5 9.98594 48.8922 9.98594Z" fill="#D9E3E8"/>
<path d="M50.4484 67.6969C59.3969 67.6969 75.0891 73.4031 80.1469 73.4031H41.5C41.5 73.4031 41.5 67.6969 50.4484 67.6969Z" fill="#94989B"/>
<path d="M67.6968 18.4156L67.5671 17.3781C66.3999 17.3781 64.1952 16.9891 61.7311 16.4703C58.3593 15.8219 54.4686 15.0438 51.3561 15.0438C47.2061 15.0438 45.9093 15.9516 45.6499 16.0813L46.039 16.4703L46.428 16.8594C46.428 16.8594 47.7249 16.0813 51.3561 16.0813C54.339 16.0813 58.0999 16.8594 61.4718 17.5078C64.1952 18.0266 66.3999 18.4156 67.6968 18.4156Z" fill="#7D8B91"/>
<path d="M68.2154 23.9922L68.0858 22.825C66.7889 22.825 64.5842 22.436 62.1201 21.9172C58.6186 21.2688 54.7279 20.4907 51.6154 20.4907C47.4654 20.4907 46.0389 21.3985 45.9092 21.5282L46.2982 21.9172L46.6873 22.436C46.6873 22.436 47.9842 21.5282 51.7451 21.5282C54.8576 21.5282 58.6186 22.3063 62.1201 22.9547C64.5842 23.6032 66.7889 23.9922 68.2154 23.9922Z" fill="#7D8B91"/>
<path d="M68.7342 29.8281L68.6045 28.661C67.3076 28.661 65.1029 28.1422 62.5092 27.6234C59.0076 26.8453 54.9873 26.0672 51.7451 26.0672C47.4654 26.0672 46.0389 27.1047 45.9092 27.2344L46.2982 27.7531L46.6873 28.2719C46.6873 28.2719 47.9842 27.3641 51.8748 27.3641C54.9873 27.3641 58.8779 28.1422 62.3795 28.9203C65.1029 29.4391 67.3076 29.8281 68.7342 29.8281Z" fill="#7D8B91"/>
<path d="M69.3828 35.9235L69.2531 34.6266C67.9563 34.6266 65.6219 34.1078 63.0281 33.5891C59.3969 32.811 55.3766 32.0328 52.0047 32.0328C47.5953 32.0328 46.1688 33.0703 46.0391 33.2L46.4281 33.7188L46.8172 34.2375C46.8172 34.2375 48.1141 33.3297 52.1344 33.3297C55.3766 33.3297 59.3969 34.1078 62.8984 34.886C65.4922 35.4047 67.9562 35.9235 69.3828 35.9235Z" fill="#7D8B91"/>
<path d="M69.9015 42.2781L69.7718 40.9812C68.4749 40.9812 66.1406 40.4625 63.4171 39.9437C59.7859 39.1656 55.6359 38.2578 52.264 38.2578C47.8546 38.2578 46.2984 39.2953 46.1687 39.425L46.5578 39.9437L46.9468 40.4625C46.9468 40.4625 48.2437 39.5547 52.3937 39.5547C55.6359 39.5547 59.7859 40.4625 63.4171 41.2406C66.0109 41.7594 68.4749 42.2781 69.9015 42.2781Z" fill="#7D8B91"/>
<path d="M70.5499 48.8922L70.4202 47.5953C69.1233 47.5953 66.6593 47.0766 63.9358 46.4281C60.1749 45.65 55.8952 44.7422 52.5233 44.7422C47.9843 44.7422 46.428 45.9094 46.2983 46.0391L46.6874 46.5578L47.0765 47.0766C47.0765 47.0766 48.503 46.0391 52.653 46.0391C56.0249 46.0391 60.1749 46.9469 63.9358 47.725C66.5296 48.3734 68.9937 48.8922 70.5499 48.8922Z" fill="#7D8B91"/>
<path d="M71.1983 55.7656L71.0686 54.3391C69.642 54.3391 67.3077 53.8203 64.4545 53.1719C60.5639 52.2641 56.2842 51.3563 52.7827 51.3563C48.1139 51.3563 46.5577 52.5235 46.428 52.6531L46.817 53.1719L47.2061 53.6906C47.2061 53.6906 48.6327 52.6531 52.9124 52.6531C56.2842 52.6531 60.5639 53.561 64.4545 54.4688C67.178 55.2469 69.642 55.7656 71.1983 55.7656Z" fill="#7D8B91"/>
<path d="M71.8467 63.0281L71.717 61.6016C70.2904 61.6016 67.8264 61.0828 64.9732 60.4344C61.0826 59.5266 56.5436 58.4891 53.042 58.4891C48.2436 58.4891 46.6873 59.786 46.5576 59.9156L46.9467 60.4344L47.3357 61.0828C47.3357 61.0828 48.7623 59.9156 53.1717 59.9156C56.6732 59.9156 61.0826 60.9531 64.9732 61.861C67.6967 62.3797 70.2904 63.0281 71.8467 63.0281Z" fill="#7D8B91"/>
<path d="M15.048 143.108C12.624 143.108 10.428 142.556 8.46 141.452C6.492 140.348 4.944 138.836 3.816 136.916C2.688 134.972 2.124 132.8 2.124 130.4C2.124 128 2.688 125.84 3.816 123.92C4.944 121.976 6.492 120.452 8.46 119.348C10.428 118.244 12.624 117.692 15.048 117.692C16.752 117.692 18.336 117.968 19.8 118.52C21.288 119.048 22.56 119.84 23.616 120.896L23.184 121.4C21.072 119.384 18.36 118.376 15.048 118.376C12.768 118.376 10.692 118.904 8.82 119.96C6.972 121.016 5.508 122.468 4.428 124.316C3.372 126.14 2.844 128.168 2.844 130.4C2.844 132.632 3.372 134.672 4.428 136.52C5.508 138.344 6.972 139.784 8.82 140.84C10.692 141.896 12.768 142.424 15.048 142.424C18.336 142.424 21.048 141.404 23.184 139.364L23.616 139.868C22.56 140.924 21.288 141.728 19.8 142.28C18.312 142.832 16.728 143.108 15.048 143.108ZM30.4538 129.212C30.9818 127.628 31.8698 126.416 33.1178 125.576C34.3658 124.712 35.9138 124.28 37.7618 124.28V125H37.5458C35.3138 125 33.5738 125.72 32.3258 127.16C31.0778 128.576 30.4538 130.52 30.4538 132.992V143H29.7338V124.388H30.4538V129.212ZM58.0357 133.676H41.4757C41.4757 135.356 41.8477 136.868 42.5917 138.212C43.3357 139.532 44.3557 140.564 45.6517 141.308C46.9717 142.052 48.4477 142.424 50.0797 142.424C51.3517 142.424 52.5397 142.184 53.6437 141.704C54.7717 141.2 55.6957 140.48 56.4157 139.544L56.9197 140.048C56.1037 141.032 55.0957 141.788 53.8957 142.316C52.6957 142.844 51.4237 143.108 50.0797 143.108C48.3037 143.108 46.7077 142.712 45.2917 141.92C43.8997 141.104 42.7957 139.976 41.9797 138.536C41.1877 137.096 40.7917 135.476 40.7917 133.676C40.7917 131.876 41.1637 130.268 41.9077 128.852C42.6517 127.412 43.6717 126.296 44.9677 125.504C46.2877 124.688 47.7637 124.28 49.3957 124.28C51.0037 124.28 52.4677 124.676 53.7877 125.468C55.1077 126.26 56.1397 127.352 56.8837 128.744C57.6517 130.136 58.0357 131.72 58.0357 133.496V133.676ZM49.3957 124.964C47.9557 124.964 46.6477 125.312 45.4717 126.008C44.2957 126.704 43.3477 127.664 42.6277 128.888C41.9317 130.112 41.5477 131.48 41.4757 132.992H57.3517C57.2797 131.48 56.8837 130.112 56.1637 128.888C55.4437 127.664 54.4957 126.704 53.3197 126.008C52.1437 125.312 50.8357 124.964 49.3957 124.964ZM69.5292 124.28C71.6892 124.28 73.3332 124.844 74.4612 125.972C75.6132 127.076 76.1892 128.684 76.1892 130.796V143H75.4692V139.04C74.8692 140.312 73.9572 141.308 72.7332 142.028C71.5332 142.748 70.0812 143.108 68.3772 143.108C66.3132 143.108 64.6932 142.64 63.5172 141.704C62.3652 140.744 61.7892 139.472 61.7892 137.888C61.7892 136.4 62.3052 135.2 63.3372 134.288C64.3932 133.352 66.0852 132.884 68.4132 132.884H75.4692V130.832C75.4692 128.888 74.9652 127.424 73.9572 126.44C72.9732 125.456 71.5092 124.964 69.5652 124.964C68.2212 124.964 66.9612 125.204 65.7852 125.684C64.6332 126.14 63.6372 126.764 62.7972 127.556L62.2932 127.052C63.1812 126.188 64.2612 125.516 65.5332 125.036C66.8052 124.532 68.1372 124.28 69.5292 124.28ZM68.3772 142.424C71.8332 142.424 74.1972 140.84 75.4692 137.672V133.568H68.3772C66.3612 133.568 64.8732 133.952 63.9132 134.72C62.9772 135.488 62.5092 136.532 62.5092 137.852C62.5092 139.268 63.0252 140.384 64.0572 141.2C65.0892 142.016 66.5292 142.424 68.3772 142.424ZM92.6851 141.776C92.2771 142.208 91.7371 142.544 91.0651 142.784C90.4171 143 89.7451 143.108 89.0491 143.108C87.6091 143.108 86.4931 142.7 85.7011 141.884C84.9331 141.044 84.5491 139.928 84.5491 138.536V125.072H80.9491V124.388H84.5491V120.32H85.2691V124.388H91.5691V125.072H85.2691V138.356C85.2691 139.676 85.5931 140.684 86.2411 141.38C86.8891 142.076 87.8371 142.424 89.0851 142.424C90.3331 142.424 91.3651 142.04 92.1811 141.272L92.6851 141.776ZM112.563 133.676H96.003C96.003 135.356 96.375 136.868 97.119 138.212C97.863 139.532 98.883 140.564 100.179 141.308C101.499 142.052 102.975 142.424 104.607 142.424C105.879 142.424 107.067 142.184 108.171 141.704C109.299 141.2 110.223 140.48 110.943 139.544L111.447 140.048C110.631 141.032 109.623 141.788 108.423 142.316C107.223 142.844 105.951 143.108 104.607 143.108C102.831 143.108 101.235 142.712 99.819 141.92C98.427 141.104 97.323 139.976 96.507 138.536C95.715 137.096 95.319 135.476 95.319 133.676C95.319 131.876 95.691 130.268 96.435 128.852C97.179 127.412 98.199 126.296 99.495 125.504C100.815 124.688 102.291 124.28 103.923 124.28C105.531 124.28 106.995 124.676 108.315 125.468C109.635 126.26 110.667 127.352 111.411 128.744C112.179 130.136 112.563 131.72 112.563 133.496V133.676ZM103.923 124.964C102.483 124.964 101.175 125.312 99.999 126.008C98.823 126.704 97.875 127.664 97.155 128.888C96.459 130.112 96.075 131.48 96.003 132.992H111.879C111.807 131.48 111.411 130.112 110.691 128.888C109.971 127.664 109.023 126.704 107.847 126.008C106.671 125.312 105.363 124.964 103.923 124.964ZM141.576 124.388L131.676 145.988C131.004 147.476 130.248 148.532 129.408 149.156C128.568 149.78 127.572 150.092 126.42 150.092C124.74 150.092 123.396 149.54 122.388 148.436L122.928 147.86C123.432 148.412 123.96 148.808 124.512 149.048C125.064 149.288 125.712 149.408 126.456 149.408C127.416 149.408 128.244 149.132 128.94 148.58C129.66 148.052 130.332 147.116 130.956 145.772L132.252 142.928L123.72 124.388H124.548L132.648 142.172L140.748 124.388H141.576ZM152.238 143.108C150.534 143.108 148.986 142.712 147.594 141.92C146.226 141.104 145.146 139.976 144.354 138.536C143.586 137.096 143.202 135.476 143.202 133.676C143.202 131.876 143.586 130.268 144.354 128.852C145.146 127.412 146.226 126.296 147.594 125.504C148.986 124.688 150.534 124.28 152.238 124.28C153.942 124.28 155.478 124.688 156.846 125.504C158.238 126.296 159.318 127.412 160.086 128.852C160.878 130.268 161.274 131.876 161.274 133.676C161.274 135.476 160.878 137.096 160.086 138.536C159.318 139.976 158.238 141.104 156.846 141.92C155.478 142.712 153.942 143.108 152.238 143.108ZM152.238 142.424C153.798 142.424 155.214 142.052 156.486 141.308C157.758 140.564 158.754 139.532 159.474 138.212C160.194 136.868 160.554 135.356 160.554 133.676C160.554 131.996 160.194 130.496 159.474 129.176C158.754 127.832 157.758 126.8 156.486 126.08C155.214 125.336 153.798 124.964 152.238 124.964C150.678 124.964 149.262 125.336 147.99 126.08C146.718 126.8 145.722 127.832 145.002 129.176C144.282 130.496 143.922 131.996 143.922 133.676C143.922 135.356 144.282 136.868 145.002 138.212C145.722 139.532 146.718 140.564 147.99 141.308C149.262 142.052 150.678 142.424 152.238 142.424ZM182.994 124.388V143H182.274V138.068C181.722 139.652 180.798 140.888 179.502 141.776C178.206 142.664 176.634 143.108 174.786 143.108C172.386 143.108 170.514 142.448 169.17 141.128C167.826 139.784 167.154 137.864 167.154 135.368V124.388H167.874V135.368C167.874 137.648 168.474 139.4 169.674 140.624C170.874 141.824 172.566 142.424 174.75 142.424C177.078 142.424 178.914 141.704 180.258 140.264C181.602 138.8 182.274 136.88 182.274 134.504V124.388H182.994ZM191.997 129.212C192.525 127.628 193.413 126.416 194.661 125.576C195.909 124.712 197.457 124.28 199.305 124.28V125H199.089C196.857 125 195.117 125.72 193.869 127.16C192.621 128.576 191.997 130.52 191.997 132.992V143H191.277V124.388H191.997V129.212ZM220.898 143.108C219.194 143.108 217.646 142.712 216.254 141.92C214.886 141.104 213.806 139.976 213.014 138.536C212.246 137.096 211.862 135.476 211.862 133.676C211.862 131.876 212.246 130.268 213.014 128.852C213.806 127.412 214.886 126.296 216.254 125.504C217.646 124.688 219.194 124.28 220.898 124.28C222.602 124.28 224.138 124.688 225.506 125.504C226.898 126.296 227.978 127.412 228.746 128.852C229.538 130.268 229.934 131.876 229.934 133.676C229.934 135.476 229.538 137.096 228.746 138.536C227.978 139.976 226.898 141.104 225.506 141.92C224.138 142.712 222.602 143.108 220.898 143.108ZM220.898 142.424C222.458 142.424 223.874 142.052 225.146 141.308C226.418 140.564 227.414 139.532 228.134 138.212C228.854 136.868 229.214 135.356 229.214 133.676C229.214 131.996 228.854 130.496 228.134 129.176C227.414 127.832 226.418 126.8 225.146 126.08C223.874 125.336 222.458 124.964 220.898 124.964C219.338 124.964 217.922 125.336 216.65 126.08C215.378 126.8 214.382 127.832 213.662 129.176C212.942 130.496 212.582 131.996 212.582 133.676C212.582 135.356 212.942 136.868 213.662 138.212C214.382 139.532 215.378 140.564 216.65 141.308C217.922 142.052 219.338 142.424 220.898 142.424ZM261.099 124.388L253.935 143H253.287L246.447 125.396L239.571 143H238.959L231.795 124.388H232.515L239.247 142.136L246.087 124.388H246.771L253.611 142.136L260.343 124.388H261.099ZM274.199 124.28C276.527 124.28 278.351 124.952 279.671 126.296C280.991 127.616 281.651 129.524 281.651 132.02V143H280.931V132.02C280.931 129.74 280.343 128 279.167 126.8C278.015 125.576 276.371 124.964 274.235 124.964C271.811 124.964 269.891 125.696 268.475 127.16C267.083 128.6 266.387 130.508 266.387 132.884V143H265.667V124.388H266.387V129.356C266.963 127.772 267.923 126.536 269.267 125.648C270.611 124.736 272.255 124.28 274.199 124.28ZM314.59 116.288V143H313.87V137.312C313.246 139.088 312.19 140.504 310.702 141.56C309.214 142.592 307.498 143.108 305.554 143.108C303.874 143.108 302.338 142.712 300.946 141.92C299.578 141.104 298.498 139.976 297.706 138.536C296.914 137.096 296.518 135.476 296.518 133.676C296.518 131.876 296.914 130.268 297.706 128.852C298.498 127.412 299.578 126.296 300.946 125.504C302.338 124.688 303.874 124.28 305.554 124.28C307.474 124.28 309.178 124.808 310.666 125.864C312.178 126.896 313.246 128.288 313.87 130.04V116.288H314.59ZM305.554 142.424C307.114 142.424 308.53 142.052 309.802 141.308C311.074 140.564 312.07 139.532 312.79 138.212C313.51 136.868 313.87 135.356 313.87 133.676C313.87 131.996 313.51 130.496 312.79 129.176C312.07 127.832 311.074 126.8 309.802 126.08C308.53 125.336 307.114 124.964 305.554 124.964C303.994 124.964 302.578 125.336 301.306 126.08C300.034 126.8 299.038 127.832 298.318 129.176C297.598 130.496 297.238 131.996 297.238 133.676C297.238 135.356 297.598 136.868 298.318 138.212C299.038 139.532 300.034 140.564 301.306 141.308C302.578 142.052 303.994 142.424 305.554 142.424ZM322.867 124.388H323.587V143H322.867V124.388ZM323.227 119.24C322.963 119.24 322.735 119.144 322.543 118.952C322.375 118.76 322.291 118.544 322.291 118.304C322.291 118.04 322.375 117.824 322.543 117.656C322.735 117.464 322.963 117.368 323.227 117.368C323.467 117.368 323.683 117.464 323.875 117.656C324.067 117.824 324.163 118.04 324.163 118.304C324.163 118.544 324.067 118.76 323.875 118.952C323.683 119.144 323.467 119.24 323.227 119.24ZM338.815 143.108C337.063 143.108 335.491 142.712 334.099 141.92C332.707 141.104 331.615 139.988 330.823 138.572C330.055 137.132 329.671 135.5 329.671 133.676C329.671 131.852 330.055 130.232 330.823 128.816C331.615 127.376 332.707 126.26 334.099 125.468C335.491 124.676 337.063 124.28 338.815 124.28C340.183 124.28 341.443 124.544 342.595 125.072C343.771 125.576 344.743 126.32 345.511 127.304L345.007 127.844C344.311 126.884 343.423 126.164 342.343 125.684C341.263 125.204 340.087 124.964 338.815 124.964C337.207 124.964 335.755 125.336 334.459 126.08C333.187 126.8 332.191 127.832 331.471 129.176C330.751 130.496 330.391 131.996 330.391 133.676C330.391 135.38 330.751 136.892 331.471 138.212C332.191 139.532 333.187 140.564 334.459 141.308C335.755 142.052 337.207 142.424 338.815 142.424C340.087 142.424 341.263 142.184 342.343 141.704C343.423 141.224 344.311 140.504 345.007 139.544L345.511 140.084C344.743 141.068 343.771 141.824 342.595 142.352C341.443 142.856 340.183 143.108 338.815 143.108ZM360.084 141.776C359.676 142.208 359.136 142.544 358.464 142.784C357.816 143 357.144 143.108 356.448 143.108C355.008 143.108 353.892 142.7 353.1 141.884C352.332 141.044 351.948 139.928 351.948 138.536V125.072H348.348V124.388H351.948V120.32H352.668V124.388H358.968V125.072H352.668V138.356C352.668 139.676 352.992 140.684 353.64 141.38C354.288 142.076 355.236 142.424 356.484 142.424C357.732 142.424 358.764 142.04 359.58 141.272L360.084 141.776ZM365.617 124.388H366.337V143H365.617V124.388ZM365.977 119.24C365.713 119.24 365.485 119.144 365.293 118.952C365.125 118.76 365.041 118.544 365.041 118.304C365.041 118.04 365.125 117.824 365.293 117.656C365.485 117.464 365.713 117.368 365.977 117.368C366.217 117.368 366.433 117.464 366.625 117.656C366.817 117.824 366.913 118.04 366.913 118.304C366.913 118.544 366.817 118.76 366.625 118.952C366.433 119.144 366.217 119.24 365.977 119.24ZM381.457 143.108C379.753 143.108 378.205 142.712 376.813 141.92C375.445 141.104 374.365 139.976 373.573 138.536C372.805 137.096 372.421 135.476 372.421 133.676C372.421 131.876 372.805 130.268 373.573 128.852C374.365 127.412 375.445 126.296 376.813 125.504C378.205 124.688 379.753 124.28 381.457 124.28C383.161 124.28 384.697 124.688 386.065 125.504C387.457 126.296 388.537 127.412 389.305 128.852C390.097 130.268 390.493 131.876 390.493 133.676C390.493 135.476 390.097 137.096 389.305 138.536C388.537 139.976 387.457 141.104 386.065 141.92C384.697 142.712 383.161 143.108 381.457 143.108ZM381.457 142.424C383.017 142.424 384.433 142.052 385.705 141.308C386.977 140.564 387.973 139.532 388.693 138.212C389.413 136.868 389.773 135.356 389.773 133.676C389.773 131.996 389.413 130.496 388.693 129.176C387.973 127.832 386.977 126.8 385.705 126.08C384.433 125.336 383.017 124.964 381.457 124.964C379.897 124.964 378.481 125.336 377.209 126.08C375.937 126.8 374.941 127.832 374.221 129.176C373.501 130.496 373.141 131.996 373.141 133.676C373.141 135.356 373.501 136.868 374.221 138.212C374.941 139.532 375.937 140.564 377.209 141.308C378.481 142.052 379.897 142.424 381.457 142.424ZM405.121 124.28C407.449 124.28 409.273 124.952 410.593 126.296C411.913 127.616 412.573 129.524 412.573 132.02V143H411.853V132.02C411.853 129.74 411.265 128 410.089 126.8C408.937 125.576 407.293 124.964 405.157 124.964C402.733 124.964 400.813 125.696 399.397 127.16C398.005 128.6 397.309 130.508 397.309 132.884V143H396.589V124.388H397.309V129.356C397.885 127.772 398.845 126.536 400.189 125.648C401.533 124.736 403.177 124.28 405.121 124.28ZM426.576 124.28C428.736 124.28 430.38 124.844 431.508 125.972C432.66 127.076 433.236 128.684 433.236 130.796V143H432.516V139.04C431.916 140.312 431.004 141.308 429.78 142.028C428.58 142.748 427.128 143.108 425.424 143.108C423.36 143.108 421.74 142.64 420.564 141.704C419.412 140.744 418.836 139.472 418.836 137.888C418.836 136.4 419.352 135.2 420.384 134.288C421.44 133.352 423.132 132.884 425.46 132.884H432.516V130.832C432.516 128.888 432.012 127.424 431.004 126.44C430.02 125.456 428.556 124.964 426.612 124.964C425.268 124.964 424.008 125.204 422.832 125.684C421.68 126.14 420.684 126.764 419.844 127.556L419.34 127.052C420.228 126.188 421.308 125.516 422.58 125.036C423.852 124.532 425.184 124.28 426.576 124.28ZM425.424 142.424C428.88 142.424 431.244 140.84 432.516 137.672V133.568H425.424C423.408 133.568 421.92 133.952 420.96 134.72C420.024 135.488 419.556 136.532 419.556 137.852C419.556 139.268 420.072 140.384 421.104 141.2C422.136 142.016 423.576 142.424 425.424 142.424ZM442.028 129.212C442.556 127.628 443.444 126.416 444.692 125.576C445.94 124.712 447.488 124.28 449.336 124.28V125H449.12C446.888 125 445.148 125.72 443.9 127.16C442.652 128.576 442.028 130.52 442.028 132.992V143H441.308V124.388H442.028V129.212ZM469.549 124.388L459.649 145.988C458.977 147.476 458.221 148.532 457.381 149.156C456.541 149.78 455.545 150.092 454.393 150.092C452.713 150.092 451.369 149.54 450.361 148.436L450.901 147.86C451.405 148.412 451.933 148.808 452.485 149.048C453.037 149.288 453.685 149.408 454.429 149.408C455.389 149.408 456.217 149.132 456.913 148.58C457.633 148.052 458.305 147.116 458.929 145.772L460.225 142.928L451.693 124.388H452.521L460.621 142.172L468.721 124.388H469.549Z" fill="black"/>
<path d="M495 2H333V103H495V2Z" fill="#ED254E"/>
<path d="M170.152 21.6L153.664 72H141.136L130.048 37.872L118.6 72H106.144L89.584 21.6H101.68L113.056 57.024L124.936 21.6H135.736L147.256 57.312L158.992 21.6H170.152ZM191.421 72.576C187.341 72.576 183.669 71.736 180.405 70.056C177.189 68.328 174.669 65.952 172.845 62.928C171.021 59.904 170.109 56.472 170.109 52.632C170.109 48.792 171.021 45.36 172.845 42.336C174.669 39.312 177.189 36.96 180.405 35.28C183.669 33.552 187.341 32.688 191.421 32.688C195.501 32.688 199.149 33.552 202.365 35.28C205.581 36.96 208.101 39.312 209.925 42.336C211.749 45.36 212.661 48.792 212.661 52.632C212.661 56.472 211.749 59.904 209.925 62.928C208.101 65.952 205.581 68.328 202.365 70.056C199.149 71.736 195.501 72.576 191.421 72.576ZM191.421 63.36C194.301 63.36 196.653 62.4 198.477 60.48C200.349 58.512 201.285 55.896 201.285 52.632C201.285 49.368 200.349 46.776 198.477 44.856C196.653 42.888 194.301 41.904 191.421 41.904C188.541 41.904 186.165 42.888 184.293 44.856C182.421 46.776 181.485 49.368 181.485 52.632C181.485 55.896 182.421 58.512 184.293 60.48C186.165 62.4 188.541 63.36 191.421 63.36ZM230.896 38.376C232.24 36.504 234.04 35.088 236.296 34.128C238.6 33.168 241.24 32.688 244.216 32.688V43.056C242.968 42.96 242.128 42.912 241.696 42.912C238.48 42.912 235.96 43.824 234.136 45.648C232.312 47.424 231.4 50.112 231.4 53.712V72H220.168V33.264H230.896V38.376ZM289.999 18.576V72H279.271V67.536C276.487 70.896 272.455 72.576 267.175 72.576C263.527 72.576 260.215 71.76 257.239 70.128C254.311 68.496 252.007 66.168 250.327 63.144C248.647 60.12 247.807 56.616 247.807 52.632C247.807 48.648 248.647 45.144 250.327 42.12C252.007 39.096 254.311 36.768 257.239 35.136C260.215 33.504 263.527 32.688 267.175 32.688C272.119 32.688 275.983 34.248 278.767 37.368V18.576H289.999ZM269.119 63.36C271.951 63.36 274.303 62.4 276.175 60.48C278.047 58.512 278.983 55.896 278.983 52.632C278.983 49.368 278.047 46.776 276.175 44.856C274.303 42.888 271.951 41.904 269.119 41.904C266.239 41.904 263.863 42.888 261.991 44.856C260.119 46.776 259.183 49.368 259.183 52.632C259.183 55.896 260.119 58.512 261.991 60.48C263.863 62.4 266.239 63.36 269.119 63.36ZM313.427 72.576C310.211 72.576 307.067 72.192 303.995 71.424C300.923 70.608 298.475 69.6 296.651 68.4L300.395 60.336C302.123 61.44 304.211 62.352 306.659 63.072C309.107 63.744 311.507 64.08 313.859 64.08C318.611 64.08 320.987 62.904 320.987 60.552C320.987 59.448 320.339 58.656 319.043 58.176C317.747 57.696 315.755 57.288 313.067 56.952C309.899 56.472 307.283 55.92 305.219 55.296C303.155 54.672 301.355 53.568 299.819 51.984C298.331 50.4 297.587 48.144 297.587 45.216C297.587 42.768 298.283 40.608 299.675 38.736C301.115 36.816 303.179 35.328 305.867 34.272C308.603 33.216 311.819 32.688 315.515 32.688C318.251 32.688 320.963 33 323.651 33.624C326.387 34.2 328.643 35.016 330.419 36.072L326.675 44.064C323.267 42.144 319.547 41.184 315.515 41.184C313.115 41.184 311.315 41.52 310.115 42.192C308.915 42.864 308.315 43.728 308.315 44.784C308.315 45.984 308.963 46.824 310.259 47.304C311.555 47.784 313.619 48.24 316.451 48.672C319.619 49.2 322.211 49.776 324.227 50.4C326.243 50.976 327.995 52.056 329.483 53.64C330.971 55.224 331.715 57.432 331.715 60.264C331.715 62.664 330.995 64.8 329.555 66.672C328.115 68.544 326.003 70.008 323.219 71.064C320.483 72.072 317.219 72.576 313.427 72.576Z" fill="black"/>
<path d="M372.629 61.2H349.229L344.765 72H332.813L355.277 21.6H366.797L389.333 72H377.093L372.629 61.2ZM368.957 52.344L360.965 33.048L352.973 52.344H368.957ZM416.378 21.6C420.842 21.6 424.706 22.344 427.97 23.832C431.282 25.32 433.826 27.432 435.602 30.168C437.378 32.904 438.266 36.144 438.266 39.888C438.266 43.584 437.378 46.824 435.602 49.608C433.826 52.344 431.282 54.456 427.97 55.944C424.706 57.384 420.842 58.104 416.378 58.104H406.226V72H394.562V21.6H416.378ZM415.73 48.6C419.234 48.6 421.898 47.856 423.722 46.368C425.546 44.832 426.458 42.672 426.458 39.888C426.458 37.056 425.546 34.896 423.722 33.408C421.898 31.872 419.234 31.104 415.73 31.104H406.226V48.6H415.73ZM468.409 21.6C472.873 21.6 476.737 22.344 480.001 23.832C483.313 25.32 485.857 27.432 487.633 30.168C489.409 32.904 490.297 36.144 490.297 39.888C490.297 43.584 489.409 46.824 487.633 49.608C485.857 52.344 483.313 54.456 480.001 55.944C476.737 57.384 472.873 58.104 468.409 58.104H458.257V72H446.593V21.6H468.409ZM467.761 48.6C471.265 48.6 473.929 47.856 475.753 46.368C477.577 44.832 478.489 42.672 478.489 39.888C478.489 37.056 477.577 34.896 475.753 33.408C473.929 31.872 471.265 31.104 467.761 31.104H458.257V48.6H467.761Z" fill="white"/>
</svg>
