<svg width="46" height="46" viewBox="0 0 46 46" fill="none" xmlns="http://www.w3.org/2000/svg">
<path d="M24.9166 5.75C17.6908 5.75 11.8641 11.4042 11.4999 18.515L7.81995 23.3642C7.35995 23.9583 7.81995 24.9167 8.62495 24.9167H11.4999V30.6667C11.4999 32.7942 13.2058 34.5 15.3333 34.5H17.2499V40.25H30.6666V31.2608C35.2091 29.1142 38.3333 24.5333 38.3333 19.1667C38.3333 11.7683 32.3533 5.75 24.9166 5.75ZM32.6983 18.3425L28.9416 19.3392L31.7016 22.1183C32.0235 22.4416 32.2042 22.8792 32.2042 23.3354C32.2042 23.7916 32.0235 24.2292 31.7016 24.5525C31.3783 24.8744 30.9407 25.0551 30.4845 25.0551C30.0283 25.0551 29.5907 24.8744 29.2675 24.5525L26.4691 21.7925L25.4916 25.5492C25.2616 26.4883 24.3033 27.025 23.4024 26.7758C23.1824 26.7197 22.9757 26.6204 22.7945 26.4836C22.6133 26.3467 22.4612 26.1752 22.347 25.9789C22.2328 25.7826 22.1588 25.5656 22.1294 25.3404C22.1 25.1153 22.1158 24.8865 22.1758 24.6675L23.1916 20.8917L19.4158 21.9075C19.1968 21.9688 18.9677 21.9856 18.742 21.9568C18.5164 21.928 18.2989 21.8543 18.1023 21.7399C17.9057 21.6255 17.7341 21.4728 17.5975 21.2909C17.461 21.109 17.3624 20.9016 17.3074 20.6808C17.0583 19.78 17.5949 18.8217 18.5341 18.5917L22.2908 17.6142L19.5308 14.8158C19.2424 14.4865 19.0901 14.0599 19.1046 13.6224C19.1191 13.1849 19.2993 12.7693 19.6089 12.4597C19.9184 12.1502 20.334 11.9699 20.7715 11.9554C21.209 11.9409 21.6356 12.0933 21.9649 12.3817L24.7441 15.1417L25.7408 11.385C25.7945 11.1696 25.8903 10.9669 26.0225 10.7886C26.1548 10.6102 26.321 10.4598 26.5115 10.3458C26.702 10.2319 26.9132 10.1566 27.1329 10.1245C27.3525 10.0923 27.5764 10.1038 27.7916 10.1583C28.7499 10.4075 29.2866 11.3467 29.0566 12.2858L28.0408 16.0425L31.7974 15.0267C32.0202 14.9692 32.2522 14.9564 32.4799 14.9889C32.7077 15.0215 32.9267 15.0988 33.1245 15.2164C33.3222 15.334 33.4948 15.4895 33.6321 15.6741C33.7695 15.8586 33.869 16.0685 33.925 16.2917C33.9795 16.5069 33.991 16.7307 33.9588 16.9504C33.9267 17.1701 33.8514 17.3813 33.7375 17.5718C33.6235 17.7623 33.473 17.9285 33.2947 18.0607C33.1164 18.193 32.9137 18.2888 32.6983 18.3425Z" fill="black"/>
</svg>
