<svg width="44" height="44" viewBox="0 0 44 44" fill="none" xmlns="http://www.w3.org/2000/svg">
<path d="M36.6665 36.6667H7.33317C6.36071 36.6667 5.42808 36.2803 4.74045 35.5927C4.05281 34.9051 3.6665 33.9725 3.6665 33V11C3.6665 10.0275 4.05281 9.0949 4.74045 8.40727C5.42808 7.71964 6.36071 7.33333 7.33317 7.33333H36.6665C37.639 7.33333 38.5716 7.71964 39.2592 8.40727C39.9469 9.0949 40.3332 10.0275 40.3332 11V33C40.3332 33.9725 39.9469 34.9051 39.2592 35.5927C38.5716 36.2803 37.639 36.6667 36.6665 36.6667ZM9.1665 23.8333V27.5H29.3332V23.8333H9.1665ZM9.1665 16.5V20.1667H34.8332V16.5H9.1665Z" fill="black"/>
</svg>
