<svg width="36" height="36" viewBox="0 0 36 36" fill="none" xmlns="http://www.w3.org/2000/svg">
<path d="M26.2499 21C25.8108 22.5276 24.9405 23.8962 23.7433 24.9418C22.5461 25.9873 21.0728 26.6655 19.4999 26.895C18.27 27.0734 17.0166 27.0015 15.8152 26.6835C14.6137 26.3655 13.4889 25.8081 12.5082 25.0446C11.5276 24.281 10.7113 23.3272 10.1084 22.2404C9.50556 21.1536 9.12851 19.9562 8.99993 18.72C8.90032 17.479 9.05928 16.2308 9.46676 15.0544C9.87423 13.8779 10.5214 12.7988 11.3672 11.8853C12.2131 10.9717 13.2393 10.2436 14.381 9.74701C15.5226 9.25037 16.7549 8.99601 17.9999 9C19.1666 9.00164 20.3222 9.22564 21.4049 9.66C21.5754 9.73654 21.7684 9.74667 21.9459 9.68841C22.1235 9.63014 22.2729 9.50768 22.3649 9.345L24.5249 5.37C24.5714 5.27844 24.5994 5.17861 24.6072 5.07622C24.615 4.97383 24.6025 4.87091 24.5705 4.77335C24.5384 4.6758 24.4874 4.58553 24.4204 4.50773C24.3534 4.42994 24.2717 4.36614 24.1799 4.32C21.8605 3.26987 19.3119 2.82741 16.7743 3.0343C14.2366 3.24119 11.7934 4.09062 9.6747 5.50259C7.55601 6.91455 5.83158 8.84257 4.66385 11.1051C3.49611 13.3676 2.92349 15.8901 2.99993 18.435C3.14774 22.2148 4.70149 25.8033 7.35679 28.4975C10.0121 31.1916 13.5776 32.7973 17.3549 33C21.3118 33.1755 25.1775 31.7788 28.1085 29.1148C31.0395 26.4508 32.7979 22.7356 32.9999 18.78V15.78C32.9961 15.5823 32.9158 15.3937 32.776 15.2539C32.6362 15.1141 32.4476 15.0338 32.2499 15.03H18.7499C18.551 15.03 18.3602 15.109 18.2196 15.2497C18.0789 15.3903 17.9999 15.5811 17.9999 15.78V20.28C17.9999 20.4789 18.0789 20.6697 18.2196 20.8103C18.3602 20.951 18.551 21.03 18.7499 21.03H26.2499" fill="white"/>
</svg>
