<svg width="26" height="26" viewBox="0 0 26 26" fill="none" xmlns="http://www.w3.org/2000/svg">
<path d="M22.75 21.125H3.25C2.81902 21.125 2.4057 20.9538 2.10095 20.649C1.7962 20.3443 1.625 19.931 1.625 19.5V8.125C1.625 7.69402 1.7962 7.2807 2.10095 6.97595C2.4057 6.67121 2.81902 6.5 3.25 6.5H22.75C23.181 6.5 23.5943 6.67121 23.899 6.97595C24.2038 7.2807 24.375 7.69402 24.375 8.125V19.5C24.375 19.931 24.2038 20.3443 23.899 20.649C23.5943 20.9538 23.181 21.125 22.75 21.125ZM3.25 8.125V19.5H22.75V8.125H3.25Z" fill="black"/>
<path d="M8.125 16.25H17.0625V17.875H8.125V16.25Z" fill="black"/>
<path d="M4.875 9.75H6.5V11.375H4.875V9.75Z" fill="black"/>
<path d="M8.125 9.75H9.75V11.375H8.125V9.75Z" fill="black"/>
<path d="M11.375 9.75H13V11.375H11.375V9.75Z" fill="black"/>
<path d="M14.625 9.75H16.25V11.375H14.625V9.75Z" fill="black"/>
<path d="M4.875 16.25H6.5V17.875H4.875V16.25Z" fill="black"/>
<path d="M4.875 13H6.5V14.625H4.875V13Z" fill="black"/>
<path d="M8.125 13H9.75V14.625H8.125V13Z" fill="black"/>
<path d="M11.375 13H13V14.625H11.375V13Z" fill="black"/>
<path d="M17.875 9.75H21.125V11.375H17.875V9.75Z" fill="black"/>
<path d="M17.875 13H21.125V14.625H17.875V13Z" fill="black"/>
<path d="M14.625 13H16.25V14.625H14.625V13Z" fill="black"/>
<path d="M18.6875 16.25H21.125V17.875H18.6875V16.25Z" fill="black"/>
</svg>
