<svg width="45" height="45" viewBox="0 0 45 45" fill="none" xmlns="http://www.w3.org/2000/svg">
<path fill-rule="evenodd" clip-rule="evenodd" d="M14.0625 32.3438C14.0625 31.9708 14.2107 31.6131 14.4744 31.3494C14.7381 31.0857 15.0958 30.9375 15.4688 30.9375H40.7812C41.1542 30.9375 41.5119 31.0857 41.7756 31.3494C42.0393 31.6131 42.1875 31.9708 42.1875 32.3438C42.1875 32.7167 42.0393 33.0744 41.7756 33.3381C41.5119 33.6018 41.1542 33.75 40.7812 33.75H15.4688C15.0958 33.75 14.7381 33.6018 14.4744 33.3381C14.2107 33.0744 14.0625 32.7167 14.0625 32.3438ZM14.0625 21.0938C14.0625 20.7208 14.2107 20.3631 14.4744 20.0994C14.7381 19.8357 15.0958 19.6875 15.4688 19.6875H40.7812C41.1542 19.6875 41.5119 19.8357 41.7756 20.0994C42.0393 20.3631 42.1875 20.7208 42.1875 21.0938C42.1875 21.4667 42.0393 21.8244 41.7756 22.0881C41.5119 22.3518 41.1542 22.5 40.7812 22.5H15.4688C15.0958 22.5 14.7381 22.3518 14.4744 22.0881C14.2107 21.8244 14.0625 21.4667 14.0625 21.0938ZM14.0625 9.84375C14.0625 9.47079 14.2107 9.1131 14.4744 8.84938C14.7381 8.58566 15.0958 8.4375 15.4688 8.4375H40.7812C41.1542 8.4375 41.5119 8.58566 41.7756 8.84938C42.0393 9.1131 42.1875 9.47079 42.1875 9.84375C42.1875 10.2167 42.0393 10.5744 41.7756 10.8381C41.5119 11.1018 41.1542 11.25 40.7812 11.25H15.4688C15.0958 11.25 14.7381 11.1018 14.4744 10.8381C14.2107 10.5744 14.0625 10.2167 14.0625 9.84375ZM5.625 12.6562C6.37092 12.6562 7.08629 12.3599 7.61374 11.8325C8.14118 11.305 8.4375 10.5897 8.4375 9.84375C8.4375 9.09783 8.14118 8.38246 7.61374 7.85501C7.08629 7.32757 6.37092 7.03125 5.625 7.03125C4.87908 7.03125 4.16371 7.32757 3.63626 7.85501C3.10882 8.38246 2.8125 9.09783 2.8125 9.84375C2.8125 10.5897 3.10882 11.305 3.63626 11.8325C4.16371 12.3599 4.87908 12.6562 5.625 12.6562ZM5.625 23.9062C6.37092 23.9062 7.08629 23.6099 7.61374 23.0825C8.14118 22.555 8.4375 21.8397 8.4375 21.0938C8.4375 20.3478 8.14118 19.6325 7.61374 19.105C7.08629 18.5776 6.37092 18.2812 5.625 18.2812C4.87908 18.2812 4.16371 18.5776 3.63626 19.105C3.10882 19.6325 2.8125 20.3478 2.8125 21.0938C2.8125 21.8397 3.10882 22.555 3.63626 23.0825C4.16371 23.6099 4.87908 23.9062 5.625 23.9062ZM5.625 35.1562C6.37092 35.1562 7.08629 34.8599 7.61374 34.3325C8.14118 33.805 8.4375 33.0897 8.4375 32.3438C8.4375 31.5978 8.14118 30.8825 7.61374 30.355C7.08629 29.8276 6.37092 29.5312 5.625 29.5312C4.87908 29.5312 4.16371 29.8276 3.63626 30.355C3.10882 30.8825 2.8125 31.5978 2.8125 32.3438C2.8125 33.0897 3.10882 33.805 3.63626 34.3325C4.16371 34.8599 4.87908 35.1562 5.625 35.1562Z" fill="black"/>
</svg>
