<svg width="20" height="20" viewBox="0 0 20 20" fill="none" xmlns="http://www.w3.org/2000/svg">
<path d="M9.99992 18.3333C10.9204 18.3333 11.6666 17.5871 11.6666 16.6667C11.6666 15.7462 10.9204 15 9.99992 15C9.07944 15 8.33325 15.7462 8.33325 16.6667C8.33325 17.5871 9.07944 18.3333 9.99992 18.3333Z" fill="white"/>
<path d="M9.99992 4.99999C10.9204 4.99999 11.6666 4.2538 11.6666 3.33332C11.6666 2.41285 10.9204 1.66666 9.99992 1.66666C9.07944 1.66666 8.33325 2.41285 8.33325 3.33332C8.33325 4.2538 9.07944 4.99999 9.99992 4.99999Z" fill="white"/>
<path d="M5.28581 16.3808C6.20628 16.3808 6.95247 15.6346 6.95247 14.7142C6.95247 13.7937 6.20628 13.0475 5.28581 13.0475C4.36533 13.0475 3.61914 13.7937 3.61914 14.7142C3.61914 15.6346 4.36533 16.3808 5.28581 16.3808Z" fill="white"/>
<path d="M14.7143 6.95251C15.6347 6.95251 16.3809 6.20631 16.3809 5.28584C16.3809 4.36536 15.6347 3.61917 14.7143 3.61917C13.7938 3.61917 13.0476 4.36536 13.0476 5.28584C13.0476 6.20631 13.7938 6.95251 14.7143 6.95251Z" fill="white"/>
<path d="M3.33327 11.6675C4.25421 11.6675 5.00077 10.9209 5.00077 9.99999C5.00077 9.07905 4.25421 8.33249 3.33327 8.33249C2.41234 8.33249 1.66577 9.07905 1.66577 9.99999C1.66577 10.9209 2.41234 11.6675 3.33327 11.6675Z" fill="white"/>
<path d="M16.6667 11.6667C17.5871 11.6667 18.3333 10.9205 18.3333 10C18.3333 9.07954 17.5871 8.33334 16.6667 8.33334C15.7462 8.33334 15 9.07954 15 10C15 10.9205 15.7462 11.6667 16.6667 11.6667Z" fill="white"/>
<path d="M5.28581 6.95333C6.20628 6.95333 6.95247 6.20714 6.95247 5.28666C6.95247 4.36619 6.20628 3.62 5.28581 3.62C4.36533 3.62 3.61914 4.36619 3.61914 5.28666C3.61914 6.20714 4.36533 6.95333 5.28581 6.95333Z" fill="white"/>
<path d="M14.7143 16.3817C15.6347 16.3817 16.3809 15.6355 16.3809 14.715C16.3809 13.7945 15.6347 13.0483 14.7143 13.0483C13.7938 13.0483 13.0476 13.7945 13.0476 14.715C13.0476 15.6355 13.7938 16.3817 14.7143 16.3817Z" fill="white"/>
</svg>
