<svg width="28" height="28" viewBox="0 0 28 28" fill="none" xmlns="http://www.w3.org/2000/svg">
<g clip-path="url(#clip0)">
<path fill-rule="evenodd" clip-rule="evenodd" d="M4.99438 12.5055C4.9131 12.424 4.81655 12.3593 4.71024 12.3152C4.60394 12.2711 4.48998 12.2484 4.37488 12.2484C4.25979 12.2484 4.14583 12.2711 4.03953 12.3152C3.93322 12.3593 3.83666 12.424 3.75538 12.5055L0.255385 16.0055C0.091083 16.1698 -0.0012207 16.3926 -0.0012207 16.625C-0.0012207 16.8573 0.091083 17.0802 0.255385 17.2445C0.419686 17.4088 0.642527 17.5011 0.874885 17.5011C1.10724 17.5011 1.33008 17.4088 1.49438 17.2445L4.37488 14.3622L7.25538 17.2445C7.41969 17.4088 7.64253 17.5011 7.87489 17.5011C8.10724 17.5011 8.33008 17.4088 8.49438 17.2445C8.65869 17.0802 8.75099 16.8573 8.75099 16.625C8.75099 16.3926 8.65869 16.1698 8.49438 16.0055L4.99438 12.5055ZM27.7444 10.7555C27.6631 10.674 27.5665 10.6093 27.4602 10.5652C27.3539 10.5211 27.24 10.4984 27.1249 10.4984C27.0098 10.4984 26.8958 10.5211 26.7895 10.5652C26.6832 10.6093 26.5867 10.674 26.5054 10.7555L23.6249 13.6377L20.7444 10.7555C20.5801 10.5912 20.3572 10.4989 20.1249 10.4989C19.8925 10.4989 19.6697 10.5912 19.5054 10.7555C19.3411 10.9198 19.2488 11.1426 19.2488 11.375C19.2488 11.6073 19.3411 11.8302 19.5054 11.9945L23.0054 15.4945C23.0867 15.576 23.1832 15.6406 23.2895 15.6847C23.3958 15.7288 23.5098 15.7515 23.6249 15.7515C23.74 15.7515 23.8539 15.7288 23.9602 15.6847C24.0665 15.6406 24.1631 15.576 24.2444 15.4945L27.7444 11.9945C27.8259 11.9132 27.8905 11.8166 27.9346 11.7103C27.9787 11.604 28.0014 11.4901 28.0014 11.375C28.0014 11.2599 27.9787 11.1459 27.9346 11.0396C27.8905 10.9333 27.8259 10.8368 27.7444 10.7555Z" fill="black"/>
<path fill-rule="evenodd" clip-rule="evenodd" d="M14 5.24999C12.5425 5.24887 11.1079 5.6122 9.82668 6.30691C8.54544 7.00163 7.45824 8.00569 6.664 9.22774C6.53341 9.41289 6.33609 9.54016 6.11357 9.58279C5.89104 9.62541 5.66066 9.58006 5.4709 9.45627C5.28113 9.33248 5.14678 9.13991 5.09612 8.91907C5.04545 8.69824 5.08242 8.46636 5.19925 8.27224C6.43386 6.37495 8.24855 4.92744 10.3728 4.14548C12.4971 3.36352 14.8172 3.28899 16.9872 3.93299C19.1573 4.57698 21.0612 5.90503 22.415 7.71916C23.7689 9.5333 24.5002 11.7364 24.5 14C24.5 14.2323 24.4077 14.4551 24.2435 14.6193C24.0792 14.7836 23.8564 14.8759 23.6241 14.8759C23.3918 14.8759 23.169 14.7836 23.0048 14.6193C22.8405 14.4551 22.7482 14.2323 22.7482 14C22.7482 11.6793 21.8264 9.45374 20.1854 7.8128C18.5445 6.17186 16.3189 5.24999 13.9983 5.24999H14ZM4.375 13.125C4.60706 13.125 4.82962 13.2172 4.99372 13.3813C5.15781 13.5454 5.25 13.7679 5.25 14C5.24935 15.8868 5.85865 17.7234 6.98703 19.2357C8.1154 20.7479 9.7024 21.855 11.5113 22.3916C13.3203 22.9283 15.2542 22.8658 17.0248 22.2136C18.7953 21.5613 20.3076 20.3542 21.336 18.7722C21.3966 18.6715 21.4769 18.584 21.5721 18.515C21.6673 18.446 21.7754 18.3969 21.89 18.3706C22.0046 18.3443 22.1234 18.3413 22.2391 18.362C22.3549 18.3826 22.4653 18.4263 22.5638 18.4906C22.6623 18.5548 22.7468 18.6382 22.8123 18.7359C22.8778 18.8335 22.923 18.9433 22.9451 19.0588C22.9672 19.1743 22.9658 19.293 22.941 19.408C22.9162 19.5229 22.8685 19.6317 22.8008 19.7277C21.5661 21.625 19.7515 23.0725 17.6272 23.8545C15.5029 24.6364 13.1828 24.711 11.0128 24.067C8.84268 23.423 6.93882 22.0949 5.58498 20.2808C4.23114 18.4667 3.49981 16.2636 3.5 14C3.5 13.8849 3.52269 13.771 3.56677 13.6647C3.61085 13.5585 3.67546 13.4619 3.7569 13.3806C3.83834 13.2994 3.935 13.235 4.04136 13.1911C4.14773 13.1472 4.2617 13.1248 4.37675 13.125H4.375Z" fill="black"/>
</g>
<defs>
<clipPath id="clip0">
<rect width="28" height="28" fill="white"/>
</clipPath>
</defs>
</svg>
