<svg width="60" height="60" viewBox="0 0 60 60" fill="none" xmlns="http://www.w3.org/2000/svg">
<path d="M59.8197 55.6873L40.3423 36.2098C43.3648 32.3024 44.9998 27.5249 44.9998 22.4999C44.9998 16.4849 42.6523 10.845 38.4073 6.59247C34.1624 2.33999 28.5074 0 22.4999 0C16.4924 0 10.8375 2.34749 6.59247 6.59247C2.33999 10.8375 0 16.4849 0 22.4999C0 28.5074 2.34749 34.1624 6.59247 38.4073C10.8375 42.6598 16.4849 44.9998 22.4999 44.9998C27.5249 44.9998 32.2949 43.3648 36.2023 40.3498L55.6798 59.8197C55.7369 59.8769 55.8047 59.9222 55.8793 59.9531C55.954 59.9841 56.034 60 56.1148 60C56.1956 60 56.2756 59.9841 56.3502 59.9531C56.4248 59.9222 56.4926 59.8769 56.5498 59.8197L59.8197 56.5573C59.8769 56.5001 59.9222 56.4323 59.9531 56.3577C59.9841 56.2831 60 56.203 60 56.1223C60 56.0415 59.9841 55.9615 59.9531 55.8868C59.9222 55.8122 59.8769 55.7444 59.8197 55.6873ZM34.3799 34.3799C31.1999 37.5523 26.9849 39.2998 22.4999 39.2998C18.0149 39.2998 13.7999 37.5523 10.62 34.3799C7.44747 31.1999 5.69998 26.9849 5.69998 22.4999C5.69998 18.0149 7.44747 13.7924 10.62 10.62C13.7999 7.44747 18.0149 5.69998 22.4999 5.69998C26.9849 5.69998 31.2074 7.43997 34.3799 10.62C37.5523 13.7999 39.2998 18.0149 39.2998 22.4999C39.2998 26.9849 37.5523 31.2074 34.3799 34.3799Z" fill="black"/>
</svg>
