<svg width="44" height="44" viewBox="0 0 44 44" fill="none" xmlns="http://www.w3.org/2000/svg">
<path d="M39.8077 19.2133L35.7132 17.9911C35.4301 17.0027 35.0408 16.0479 34.5521 15.1433L36.5565 11.3911C36.6318 11.2495 36.6593 11.0874 36.6351 10.9288C36.6109 10.7703 36.5362 10.6238 36.4221 10.5111L33.501 7.57778C33.3883 7.46371 33.2418 7.38902 33.0833 7.3648C32.9247 7.34058 32.7626 7.36812 32.621 7.44334L28.8932 9.43556C27.9797 8.92303 27.0124 8.51313 26.0088 8.21333L24.7866 4.16778C24.7349 4.01869 24.6372 3.88984 24.5076 3.79979C24.378 3.70975 24.2232 3.66313 24.0654 3.66667H19.9343C19.7756 3.66741 19.6213 3.71878 19.4938 3.8133C19.3663 3.90783 19.2723 4.04057 19.2254 4.19222L18.0032 8.22556C16.9912 8.52375 16.0156 8.93369 15.0943 9.44778L11.4277 7.46778C11.286 7.39257 11.1239 7.36503 10.9654 7.38925C10.8069 7.41347 10.6604 7.48815 10.5477 7.60222L7.57766 10.4989C7.46359 10.6116 7.3889 10.7581 7.36468 10.9166C7.34046 11.0751 7.368 11.2373 7.44322 11.3789L9.42322 15.0456C8.90995 15.963 8.50004 16.9344 8.20099 17.9422L4.15544 19.1644C4.00379 19.2113 3.87104 19.3053 3.77652 19.4328C3.68199 19.5603 3.63062 19.7146 3.62988 19.8733V24.0044C3.63062 24.1632 3.68199 24.3175 3.77652 24.445C3.87104 24.5725 4.00379 24.6665 4.15544 24.7133L8.22544 25.9356C8.52775 26.9266 8.9376 27.8815 9.44766 28.7833L7.44322 32.6211C7.368 32.7627 7.34046 32.9249 7.36468 33.0834C7.3889 33.2419 7.46359 33.3884 7.57766 33.5011L10.4988 36.4222C10.6115 36.5363 10.758 36.611 10.9165 36.6352C11.075 36.6594 11.2371 36.6319 11.3788 36.5567L15.1554 34.54C16.0488 35.0221 16.9912 35.4072 17.9665 35.6889L19.1888 39.8078C19.2356 39.9594 19.3296 40.0922 19.4571 40.1867C19.5846 40.2812 19.7389 40.3326 19.8977 40.3333H24.0288C24.1875 40.3326 24.3418 40.2812 24.4693 40.1867C24.5968 40.0922 24.6908 39.9594 24.7377 39.8078L25.9599 35.6767C26.9269 35.3936 27.861 35.0084 28.7466 34.5278L32.5477 36.5567C32.6893 36.6319 32.8514 36.6594 33.0099 36.6352C33.1685 36.611 33.3149 36.5363 33.4277 36.4222L36.3488 33.5011C36.4628 33.3884 36.5375 33.2419 36.5618 33.0834C36.586 32.9249 36.5584 32.7627 36.4832 32.6211L34.4543 28.8322C34.94 27.9433 35.3292 27.005 35.6154 26.0333L39.7343 24.8111C39.886 24.7643 40.0187 24.6703 40.1132 24.5428C40.2078 24.4153 40.2591 24.2609 40.2599 24.1022V19.9344C40.2671 19.7825 40.2276 19.6319 40.1468 19.503C40.066 19.3741 39.9476 19.273 39.8077 19.2133V19.2133ZM21.9999 28.7222C20.6704 28.7222 19.3707 28.328 18.2652 27.5893C17.1598 26.8507 16.2981 25.8008 15.7894 24.5725C15.2806 23.3442 15.1474 21.9925 15.4068 20.6886C15.6662 19.3846 16.3064 18.1868 17.2466 17.2467C18.1867 16.3066 19.3845 15.6663 20.6884 15.4069C21.9924 15.1476 23.344 15.2807 24.5724 15.7895C25.8007 16.2983 26.8506 17.1599 27.5892 18.2653C28.3279 19.3708 28.7221 20.6705 28.7221 22C28.7221 23.7828 28.0139 25.4927 26.7532 26.7533C25.4926 28.014 23.7827 28.7222 21.9999 28.7222V28.7222Z" fill="black"/>
</svg>
