<svg width="20" height="20" viewBox="0 0 20 20" fill="none" xmlns="http://www.w3.org/2000/svg">
<path d="M9.99998 1.11111C8.24192 1.11111 6.52335 1.63244 5.06157 2.60916C3.5998 3.58589 2.46049 4.97414 1.78771 6.59837C1.11494 8.2226 0.938906 10.0099 1.28189 11.7341C1.62487 13.4584 2.47145 15.0423 3.71458 16.2854C4.95772 17.5285 6.54157 18.3751 8.26584 18.7181C9.99012 19.0611 11.7774 18.885 13.4016 18.2123C15.0258 17.5395 16.4141 16.4002 17.3908 14.9384C18.3675 13.4766 18.8889 11.7581 18.8889 10C18.8889 7.64252 17.9524 5.3816 16.2854 3.71461C14.6184 2.04762 12.3575 1.11111 9.99998 1.11111V1.11111ZM9.99998 17.7778C8.46168 17.7778 6.95792 17.3216 5.67888 16.467C4.39983 15.6124 3.40293 14.3976 2.81425 12.9764C2.22557 11.5552 2.07154 9.99137 2.37165 8.48263C2.67175 6.97389 3.41252 5.58802 4.50026 4.50028C5.588 3.41254 6.97387 2.67178 8.48261 2.37167C9.99135 2.07157 11.5552 2.22559 12.9764 2.81427C14.3976 3.40295 15.6123 4.39985 16.467 5.6789C17.3216 6.95795 17.7778 8.4617 17.7778 10C17.7778 12.0628 16.9583 14.0411 15.4997 15.4997C14.0411 16.9583 12.0628 17.7778 9.99998 17.7778Z" fill="white"/>
<path d="M15.5555 6.72222C15.4515 6.61875 15.3106 6.56067 15.1639 6.56067C15.0171 6.56067 14.8763 6.61875 14.7722 6.72222L8.60555 12.8611L5.27221 9.52778C5.17055 9.41801 5.02944 9.35312 4.87993 9.34739C4.73042 9.34166 4.58476 9.39555 4.47499 9.49722C4.36522 9.59889 4.30033 9.73999 4.2946 9.8895C4.28887 10.039 4.34277 10.1847 4.44444 10.2944L8.60555 14.4444L15.5555 7.51111C15.6076 7.45946 15.6489 7.39802 15.6772 7.33032C15.7054 7.26262 15.7199 7.19001 15.7199 7.11667C15.7199 7.04333 15.7054 6.97071 15.6772 6.90301C15.6489 6.83531 15.6076 6.77387 15.5555 6.72222Z" fill="white"/>
</svg>
